<?xml version="1.0" encoding="UTF-8"?>
<!DOCTYPE svg PUBLIC "-//W3C//DTD SVG 1.1//EN" "http://www.w3.org/Graphics/SVG/1.1/DTD/svg11.dtd">
<svg xmlns="http://www.w3.org/2000/svg" version="1.1" width="49px" height="49px" style="shape-rendering:geometricPrecision; text-rendering:geometricPrecision; image-rendering:optimizeQuality; fill-rule:evenodd; clip-rule:evenodd" xmlns:xlink="http://www.w3.org/1999/xlink">
<g><path style="opacity:1" fill="#f9fbf9" d="M -0.5,-0.5 C 15.8333,-0.5 32.1667,-0.5 48.5,-0.5C 48.5,15.8333 48.5,32.1667 48.5,48.5C 32.1667,48.5 15.8333,48.5 -0.5,48.5C -0.5,32.1667 -0.5,15.8333 -0.5,-0.5 Z"/></g>
<g><path style="opacity:1" fill="#4e8253" d="M 20.5,2.5 C 36.9363,1.93827 44.603,9.93827 43.5,26.5C 33.4778,26.1681 23.4778,26.5015 13.5,27.5C 15.5429,34.7171 20.2095,37.5504 27.5,36C 30.2417,34.9296 32.7417,33.4296 35,31.5C 37.3092,32.9752 39.4759,34.6419 41.5,36.5C 29.8117,47.4547 18.3117,47.1213 7,35.5C 0.173021,19.7753 4.67302,8.77533 20.5,2.5 Z"/></g>
<g><path style="opacity:1" fill="#fafbfa" d="M 19.5,10.5 C 27.926,8.07984 32.5927,11.0798 33.5,19.5C 26.8333,19.5 20.1667,19.5 13.5,19.5C 13.9319,15.4103 15.9319,12.4103 19.5,10.5 Z"/></g>
</svg>
